<svg width="24" height="24" viewBox="0 0 24 24" fill="none" xmlns="http://www.w3.org/2000/svg">
<g id="icon">
<path id="Vector" d="M9.25 2C9.44891 2 9.63968 2.07902 9.78033 2.21967C9.92098 2.36032 10 2.55109 10 2.75V5.25C10 5.44891 9.92098 5.63968 9.78033 5.78033C9.63968 5.92098 9.44891 6 9.25 6C9.05109 6 8.86032 5.92098 8.71967 5.78033C8.57902 5.63968 8.5 5.44891 8.5 5.25V2.75C8.5 2.55109 8.57902 2.36032 8.71967 2.21967C8.86032 2.07902 9.05109 2 9.25 2ZM4.47 3.97C4.61063 3.82955 4.80125 3.75066 5 3.75066C5.19875 3.75066 5.38937 3.82955 5.53 3.97L7.28 5.72C7.35369 5.78866 7.41279 5.87146 7.45378 5.96346C7.49477 6.05546 7.51681 6.15477 7.51859 6.25548C7.52037 6.35618 7.50184 6.45621 7.46412 6.5496C7.4264 6.64299 7.37026 6.72782 7.29904 6.79904C7.22782 6.87026 7.14299 6.9264 7.0496 6.96412C6.95621 7.00184 6.85618 7.02037 6.75548 7.01859C6.65477 7.01681 6.55546 6.99477 6.46346 6.95378C6.37146 6.91279 6.28866 6.85369 6.22 6.78L4.47 5.03C4.32955 4.88937 4.25066 4.69875 4.25066 4.5C4.25066 4.30125 4.32955 4.11063 4.47 3.97ZM14.03 3.97C14.1705 4.11063 14.2493 4.30125 14.2493 4.5C14.2493 4.69875 14.1705 4.88937 14.03 5.03L12.28 6.78C12.2113 6.85369 12.1285 6.91279 12.0365 6.95378C11.9445 6.99477 11.8452 7.01681 11.7445 7.01859C11.6438 7.02037 11.5438 7.00184 11.4504 6.96412C11.357 6.9264 11.2722 6.87026 11.201 6.79904C11.1297 6.72782 11.0736 6.64299 11.0359 6.5496C10.9982 6.45621 10.9796 6.35618 10.9814 6.25548C10.9832 6.15477 11.0052 6.05546 11.0462 5.96346C11.0872 5.87146 11.1463 5.78866 11.22 5.72L12.97 3.97C13.1106 3.82955 13.3012 3.75066 13.5 3.75066C13.6988 3.75066 13.8894 3.82955 14.03 3.97ZM2.5 8.75C2.5 8.55109 2.57902 8.36032 2.71967 8.21967C2.86032 8.07902 3.05109 8 3.25 8H5.75C5.94891 8 6.13968 8.07902 6.28033 8.21967C6.42098 8.36032 6.5 8.55109 6.5 8.75C6.5 8.94891 6.42098 9.13968 6.28033 9.28033C6.13968 9.42098 5.94891 9.5 5.75 9.5H3.25C3.05109 9.5 2.86032 9.42098 2.71967 9.28033C2.57902 9.13968 2.5 8.94891 2.5 8.75ZM8.5 9.487C8.5 8.36 9.822 7.752 10.677 8.486L19.138 15.738C20.048 16.518 19.53 18.009 18.333 18.058L14.493 18.211C14.08 18.227 13.692 18.411 13.416 18.718L10.802 21.64C9.995 22.543 8.5 21.971 8.5 20.76V9.487Z" fill="white"/>
</g>
</svg>
